<mxfile host="app.diagrams.net" modified="2022-05-17T03:06:07.966Z" agent="5.0 (Windows NT 10.0; Win64; x64) AppleWebKit/537.36 (KHTML, like Gecko) Chrome/101.0.4951.64 Safari/537.36 Edg/101.0.1210.47" etag="mJ7BcUZ-WdX9RV22CaEI" version="18.0.5" type="github">
  <diagram id="kxph9tolvuM7bVV0bxlk" name="Page-1">
    <mxGraphModel dx="2577" dy="1960" grid="1" gridSize="10" guides="1" tooltips="1" connect="1" arrows="1" fold="1" page="1" pageScale="1" pageWidth="827" pageHeight="1169" math="0" shadow="0">
      <root>
        <mxCell id="0" />
        <mxCell id="1" parent="0" />
        <mxCell id="pKEzk_fPkg9QKM04Ghke-3" value="" style="rounded=0;whiteSpace=wrap;html=1;" vertex="1" parent="1">
          <mxGeometry x="160" y="220" width="260" height="140" as="geometry" />
        </mxCell>
        <mxCell id="pKEzk_fPkg9QKM04Ghke-4" value="" style="rounded=0;whiteSpace=wrap;html=1;" vertex="1" parent="1">
          <mxGeometry x="170" y="250" width="180" height="40" as="geometry" />
        </mxCell>
        <mxCell id="pKEzk_fPkg9QKM04Ghke-10" value="" style="group;fillColor=#CCCCCC;" vertex="1" connectable="0" parent="1">
          <mxGeometry x="170" y="250" width="240" height="40" as="geometry" />
        </mxCell>
        <mxCell id="pKEzk_fPkg9QKM04Ghke-5" value="bset" style="rounded=0;whiteSpace=wrap;html=1;fillColor=#CCCCCC;" vertex="1" parent="pKEzk_fPkg9QKM04Ghke-10">
          <mxGeometry width="60" height="40" as="geometry" />
        </mxCell>
        <mxCell id="pKEzk_fPkg9QKM04Ghke-7" value="bkey" style="rounded=0;whiteSpace=wrap;html=1;" vertex="1" parent="pKEzk_fPkg9QKM04Ghke-10">
          <mxGeometry x="60" width="60" height="40" as="geometry" />
        </mxCell>
        <mxCell id="pKEzk_fPkg9QKM04Ghke-8" value="bkey" style="rounded=0;whiteSpace=wrap;html=1;" vertex="1" parent="pKEzk_fPkg9QKM04Ghke-10">
          <mxGeometry x="120" width="60" height="40" as="geometry" />
        </mxCell>
        <mxCell id="pKEzk_fPkg9QKM04Ghke-9" value="bkey" style="rounded=0;whiteSpace=wrap;html=1;" vertex="1" parent="pKEzk_fPkg9QKM04Ghke-10">
          <mxGeometry x="180" width="60" height="40" as="geometry" />
        </mxCell>
        <mxCell id="pKEzk_fPkg9QKM04Ghke-11" value="" style="group" vertex="1" connectable="0" parent="1">
          <mxGeometry x="170" y="290" width="240" height="40" as="geometry" />
        </mxCell>
        <mxCell id="pKEzk_fPkg9QKM04Ghke-12" value="bset" style="rounded=0;whiteSpace=wrap;html=1;fillColor=#CCCCCC;" vertex="1" parent="pKEzk_fPkg9QKM04Ghke-11">
          <mxGeometry width="60" height="40" as="geometry" />
        </mxCell>
        <mxCell id="pKEzk_fPkg9QKM04Ghke-13" value="bkey" style="rounded=0;whiteSpace=wrap;html=1;" vertex="1" parent="pKEzk_fPkg9QKM04Ghke-11">
          <mxGeometry x="60" width="60" height="40" as="geometry" />
        </mxCell>
        <mxCell id="pKEzk_fPkg9QKM04Ghke-14" value="bkey" style="rounded=0;whiteSpace=wrap;html=1;" vertex="1" parent="pKEzk_fPkg9QKM04Ghke-11">
          <mxGeometry x="120" width="60" height="40" as="geometry" />
        </mxCell>
        <mxCell id="pKEzk_fPkg9QKM04Ghke-15" value="bkey" style="rounded=0;whiteSpace=wrap;html=1;" vertex="1" parent="pKEzk_fPkg9QKM04Ghke-11">
          <mxGeometry x="180" width="60" height="40" as="geometry" />
        </mxCell>
        <mxCell id="pKEzk_fPkg9QKM04Ghke-16" value="..." style="text;html=1;strokeColor=none;fillColor=none;align=center;verticalAlign=middle;whiteSpace=wrap;rounded=0;" vertex="1" parent="1">
          <mxGeometry x="260" y="330" width="60" height="30" as="geometry" />
        </mxCell>
        <mxCell id="pKEzk_fPkg9QKM04Ghke-17" value="bkey" style="text;html=1;strokeColor=none;fillColor=none;align=center;verticalAlign=middle;whiteSpace=wrap;rounded=0;" vertex="1" parent="1">
          <mxGeometry x="260" y="220" width="60" height="30" as="geometry" />
        </mxCell>
        <mxCell id="pKEzk_fPkg9QKM04Ghke-18" value="" style="rounded=0;whiteSpace=wrap;html=1;" vertex="1" parent="1">
          <mxGeometry x="-140" y="400" width="260" height="140" as="geometry" />
        </mxCell>
        <mxCell id="pKEzk_fPkg9QKM04Ghke-19" value="" style="rounded=0;whiteSpace=wrap;html=1;" vertex="1" parent="1">
          <mxGeometry x="-130" y="430" width="180" height="40" as="geometry" />
        </mxCell>
        <mxCell id="pKEzk_fPkg9QKM04Ghke-20" value="" style="group;fillColor=#CCCCCC;container=0;" vertex="1" connectable="0" parent="1">
          <mxGeometry x="-130" y="430" width="240" height="40" as="geometry" />
        </mxCell>
        <mxCell id="pKEzk_fPkg9QKM04Ghke-30" value="..." style="text;html=1;strokeColor=none;fillColor=none;align=center;verticalAlign=middle;whiteSpace=wrap;rounded=0;" vertex="1" parent="1">
          <mxGeometry x="-40" y="510" width="60" height="30" as="geometry" />
        </mxCell>
        <mxCell id="pKEzk_fPkg9QKM04Ghke-31" value="bkey" style="text;html=1;strokeColor=none;fillColor=none;align=center;verticalAlign=middle;whiteSpace=wrap;rounded=0;" vertex="1" parent="1">
          <mxGeometry x="-40" y="400" width="60" height="30" as="geometry" />
        </mxCell>
        <mxCell id="pKEzk_fPkg9QKM04Ghke-32" value="" style="rounded=0;whiteSpace=wrap;html=1;" vertex="1" parent="1">
          <mxGeometry x="160" y="400" width="260" height="140" as="geometry" />
        </mxCell>
        <mxCell id="pKEzk_fPkg9QKM04Ghke-33" value="" style="rounded=0;whiteSpace=wrap;html=1;" vertex="1" parent="1">
          <mxGeometry x="170" y="430" width="180" height="40" as="geometry" />
        </mxCell>
        <mxCell id="pKEzk_fPkg9QKM04Ghke-34" value="" style="group;fillColor=#CCCCCC;container=0;" vertex="1" connectable="0" parent="1">
          <mxGeometry x="170" y="430" width="240" height="40" as="geometry" />
        </mxCell>
        <mxCell id="pKEzk_fPkg9QKM04Ghke-44" value="..." style="text;html=1;strokeColor=none;fillColor=none;align=center;verticalAlign=middle;whiteSpace=wrap;rounded=0;" vertex="1" parent="1">
          <mxGeometry x="260" y="510" width="60" height="30" as="geometry" />
        </mxCell>
        <mxCell id="pKEzk_fPkg9QKM04Ghke-45" value="bkey" style="text;html=1;strokeColor=none;fillColor=none;align=center;verticalAlign=middle;whiteSpace=wrap;rounded=0;" vertex="1" parent="1">
          <mxGeometry x="260" y="400" width="60" height="30" as="geometry" />
        </mxCell>
        <mxCell id="pKEzk_fPkg9QKM04Ghke-46" value="" style="rounded=0;whiteSpace=wrap;html=1;" vertex="1" parent="1">
          <mxGeometry x="460" y="400" width="260" height="140" as="geometry" />
        </mxCell>
        <mxCell id="pKEzk_fPkg9QKM04Ghke-47" value="" style="rounded=0;whiteSpace=wrap;html=1;" vertex="1" parent="1">
          <mxGeometry x="470" y="430" width="180" height="40" as="geometry" />
        </mxCell>
        <mxCell id="pKEzk_fPkg9QKM04Ghke-48" value="" style="group;fillColor=#CCCCCC;container=0;" vertex="1" connectable="0" parent="1">
          <mxGeometry x="470" y="430" width="240" height="40" as="geometry" />
        </mxCell>
        <mxCell id="pKEzk_fPkg9QKM04Ghke-58" value="..." style="text;html=1;strokeColor=none;fillColor=none;align=center;verticalAlign=middle;whiteSpace=wrap;rounded=0;" vertex="1" parent="1">
          <mxGeometry x="560" y="510" width="60" height="30" as="geometry" />
        </mxCell>
        <mxCell id="pKEzk_fPkg9QKM04Ghke-59" value="bkey" style="text;html=1;strokeColor=none;fillColor=none;align=center;verticalAlign=middle;whiteSpace=wrap;rounded=0;" vertex="1" parent="1">
          <mxGeometry x="560" y="400" width="60" height="30" as="geometry" />
        </mxCell>
        <mxCell id="pKEzk_fPkg9QKM04Ghke-60" value="" style="endArrow=classic;html=1;rounded=0;exitX=0.5;exitY=0;exitDx=0;exitDy=0;" edge="1" parent="1" source="pKEzk_fPkg9QKM04Ghke-13">
          <mxGeometry width="50" height="50" relative="1" as="geometry">
            <mxPoint x="220" y="480" as="sourcePoint" />
            <mxPoint y="400" as="targetPoint" />
          </mxGeometry>
        </mxCell>
        <mxCell id="pKEzk_fPkg9QKM04Ghke-61" value="" style="endArrow=classic;html=1;rounded=0;exitX=1;exitY=0;exitDx=0;exitDy=0;entryX=1;entryY=0;entryDx=0;entryDy=0;" edge="1" parent="1" source="pKEzk_fPkg9QKM04Ghke-16" target="pKEzk_fPkg9QKM04Ghke-45">
          <mxGeometry width="50" height="50" relative="1" as="geometry">
            <mxPoint x="420" y="480" as="sourcePoint" />
            <mxPoint x="320" y="390" as="targetPoint" />
          </mxGeometry>
        </mxCell>
        <mxCell id="pKEzk_fPkg9QKM04Ghke-62" value="" style="endArrow=classic;html=1;rounded=0;exitX=0.5;exitY=0;exitDx=0;exitDy=0;entryX=0.5;entryY=0;entryDx=0;entryDy=0;" edge="1" parent="1" source="pKEzk_fPkg9QKM04Ghke-15" target="pKEzk_fPkg9QKM04Ghke-59">
          <mxGeometry width="50" height="50" relative="1" as="geometry">
            <mxPoint x="460" y="330" as="sourcePoint" />
            <mxPoint x="510" y="280" as="targetPoint" />
          </mxGeometry>
        </mxCell>
        <mxCell id="pKEzk_fPkg9QKM04Ghke-63" value="" style="rounded=0;whiteSpace=wrap;html=1;fillColor=#FFFFFF;" vertex="1" parent="1">
          <mxGeometry x="-210" y="560" width="1040" height="60" as="geometry" />
        </mxCell>
        <mxCell id="pKEzk_fPkg9QKM04Ghke-64" value="" style="rounded=0;whiteSpace=wrap;html=1;fillColor=#FFFFFF;" vertex="1" parent="1">
          <mxGeometry x="-210" y="560" width="260" height="60" as="geometry" />
        </mxCell>
        <mxCell id="pKEzk_fPkg9QKM04Ghke-65" value="" style="rounded=0;whiteSpace=wrap;html=1;fillColor=#FFFFFF;" vertex="1" parent="1">
          <mxGeometry x="50" y="560" width="260" height="60" as="geometry" />
        </mxCell>
        <mxCell id="pKEzk_fPkg9QKM04Ghke-66" value="" style="rounded=0;whiteSpace=wrap;html=1;fillColor=#FFFFFF;" vertex="1" parent="1">
          <mxGeometry x="310" y="560" width="260" height="60" as="geometry" />
        </mxCell>
        <mxCell id="pKEzk_fPkg9QKM04Ghke-67" value="" style="rounded=0;whiteSpace=wrap;html=1;fillColor=#FFFFFF;" vertex="1" parent="1">
          <mxGeometry x="570" y="560" width="260" height="60" as="geometry" />
        </mxCell>
        <mxCell id="pKEzk_fPkg9QKM04Ghke-74" value="" style="rounded=0;whiteSpace=wrap;html=1;fillColor=#FFFFFF;dashed=1;" vertex="1" parent="1">
          <mxGeometry x="-210" y="560" width="50" height="60" as="geometry" />
        </mxCell>
        <mxCell id="pKEzk_fPkg9QKM04Ghke-75" value="" style="rounded=0;whiteSpace=wrap;html=1;fillColor=#FFFFFF;dashed=1;" vertex="1" parent="1">
          <mxGeometry x="-160" y="560" width="90" height="60" as="geometry" />
        </mxCell>
        <mxCell id="pKEzk_fPkg9QKM04Ghke-76" value="" style="rounded=0;whiteSpace=wrap;html=1;fillColor=#FFFFFF;dashed=1;" vertex="1" parent="1">
          <mxGeometry x="-70" y="560" width="50" height="60" as="geometry" />
        </mxCell>
        <mxCell id="pKEzk_fPkg9QKM04Ghke-77" value="" style="rounded=0;whiteSpace=wrap;html=1;fillColor=#FFFFFF;dashed=1;" vertex="1" parent="1">
          <mxGeometry x="50" y="560" width="50" height="60" as="geometry" />
        </mxCell>
        <mxCell id="pKEzk_fPkg9QKM04Ghke-78" value="" style="rounded=0;whiteSpace=wrap;html=1;fillColor=#FFFFFF;dashed=1;" vertex="1" parent="1">
          <mxGeometry x="100" y="560" width="30" height="60" as="geometry" />
        </mxCell>
        <mxCell id="pKEzk_fPkg9QKM04Ghke-79" value="" style="rounded=0;whiteSpace=wrap;html=1;fillColor=#FFFFFF;dashed=1;" vertex="1" parent="1">
          <mxGeometry x="310" y="560" width="30" height="60" as="geometry" />
        </mxCell>
        <mxCell id="pKEzk_fPkg9QKM04Ghke-80" value="" style="rounded=0;whiteSpace=wrap;html=1;fillColor=#FFFFFF;dashed=1;" vertex="1" parent="1">
          <mxGeometry x="340" y="560" width="160" height="60" as="geometry" />
        </mxCell>
        <mxCell id="pKEzk_fPkg9QKM04Ghke-81" value="" style="rounded=0;whiteSpace=wrap;html=1;fillColor=#FFFFFF;dashed=1;" vertex="1" parent="1">
          <mxGeometry x="570" y="560" width="30" height="60" as="geometry" />
        </mxCell>
        <mxCell id="pKEzk_fPkg9QKM04Ghke-82" value="" style="rounded=0;whiteSpace=wrap;html=1;fillColor=#FFFFFF;dashed=1;" vertex="1" parent="1">
          <mxGeometry x="600" y="560" width="140" height="60" as="geometry" />
        </mxCell>
        <mxCell id="pKEzk_fPkg9QKM04Ghke-21" value="bset" style="rounded=0;whiteSpace=wrap;html=1;fillColor=#CCCCCC;" vertex="1" parent="1">
          <mxGeometry x="-130" y="430" width="60" height="40" as="geometry" />
        </mxCell>
        <mxCell id="pKEzk_fPkg9QKM04Ghke-22" value="bkey" style="rounded=0;whiteSpace=wrap;html=1;" vertex="1" parent="1">
          <mxGeometry x="-70" y="430" width="60" height="40" as="geometry" />
        </mxCell>
        <mxCell id="pKEzk_fPkg9QKM04Ghke-23" value="bkey" style="rounded=0;whiteSpace=wrap;html=1;" vertex="1" parent="1">
          <mxGeometry x="-10" y="430" width="60" height="40" as="geometry" />
        </mxCell>
        <mxCell id="pKEzk_fPkg9QKM04Ghke-24" value="bkey" style="rounded=0;whiteSpace=wrap;html=1;" vertex="1" parent="1">
          <mxGeometry x="50" y="430" width="60" height="40" as="geometry" />
        </mxCell>
        <mxCell id="pKEzk_fPkg9QKM04Ghke-26" value="bset" style="rounded=0;whiteSpace=wrap;html=1;fillColor=#CCCCCC;" vertex="1" parent="1">
          <mxGeometry x="-130" y="470" width="60" height="40" as="geometry" />
        </mxCell>
        <mxCell id="pKEzk_fPkg9QKM04Ghke-27" value="bkey" style="rounded=0;whiteSpace=wrap;html=1;" vertex="1" parent="1">
          <mxGeometry x="-70" y="470" width="60" height="40" as="geometry" />
        </mxCell>
        <mxCell id="pKEzk_fPkg9QKM04Ghke-28" value="bkey" style="rounded=0;whiteSpace=wrap;html=1;" vertex="1" parent="1">
          <mxGeometry x="-10" y="470" width="60" height="40" as="geometry" />
        </mxCell>
        <mxCell id="pKEzk_fPkg9QKM04Ghke-29" value="bkey" style="rounded=0;whiteSpace=wrap;html=1;" vertex="1" parent="1">
          <mxGeometry x="50" y="470" width="60" height="40" as="geometry" />
        </mxCell>
        <mxCell id="pKEzk_fPkg9QKM04Ghke-35" value="bset" style="rounded=0;whiteSpace=wrap;html=1;fillColor=#CCCCCC;" vertex="1" parent="1">
          <mxGeometry x="170" y="430" width="60" height="40" as="geometry" />
        </mxCell>
        <mxCell id="pKEzk_fPkg9QKM04Ghke-36" value="bkey" style="rounded=0;whiteSpace=wrap;html=1;" vertex="1" parent="1">
          <mxGeometry x="230" y="430" width="60" height="40" as="geometry" />
        </mxCell>
        <mxCell id="pKEzk_fPkg9QKM04Ghke-37" value="bkey" style="rounded=0;whiteSpace=wrap;html=1;" vertex="1" parent="1">
          <mxGeometry x="290" y="430" width="60" height="40" as="geometry" />
        </mxCell>
        <mxCell id="pKEzk_fPkg9QKM04Ghke-38" value="bkey" style="rounded=0;whiteSpace=wrap;html=1;" vertex="1" parent="1">
          <mxGeometry x="350" y="430" width="60" height="40" as="geometry" />
        </mxCell>
        <mxCell id="pKEzk_fPkg9QKM04Ghke-40" value="bset" style="rounded=0;whiteSpace=wrap;html=1;fillColor=#CCCCCC;" vertex="1" parent="1">
          <mxGeometry x="170" y="470" width="60" height="40" as="geometry" />
        </mxCell>
        <mxCell id="pKEzk_fPkg9QKM04Ghke-41" value="bkey" style="rounded=0;whiteSpace=wrap;html=1;" vertex="1" parent="1">
          <mxGeometry x="230" y="470" width="60" height="40" as="geometry" />
        </mxCell>
        <mxCell id="pKEzk_fPkg9QKM04Ghke-42" value="bkey" style="rounded=0;whiteSpace=wrap;html=1;" vertex="1" parent="1">
          <mxGeometry x="290" y="470" width="60" height="40" as="geometry" />
        </mxCell>
        <mxCell id="pKEzk_fPkg9QKM04Ghke-43" value="bkey" style="rounded=0;whiteSpace=wrap;html=1;" vertex="1" parent="1">
          <mxGeometry x="350" y="470" width="60" height="40" as="geometry" />
        </mxCell>
        <mxCell id="pKEzk_fPkg9QKM04Ghke-49" value="bset" style="rounded=0;whiteSpace=wrap;html=1;fillColor=#CCCCCC;" vertex="1" parent="1">
          <mxGeometry x="470" y="430" width="60" height="40" as="geometry" />
        </mxCell>
        <mxCell id="pKEzk_fPkg9QKM04Ghke-50" value="bkey" style="rounded=0;whiteSpace=wrap;html=1;" vertex="1" parent="1">
          <mxGeometry x="530" y="430" width="60" height="40" as="geometry" />
        </mxCell>
        <mxCell id="pKEzk_fPkg9QKM04Ghke-51" value="bkey" style="rounded=0;whiteSpace=wrap;html=1;" vertex="1" parent="1">
          <mxGeometry x="590" y="430" width="60" height="40" as="geometry" />
        </mxCell>
        <mxCell id="pKEzk_fPkg9QKM04Ghke-52" value="bkey" style="rounded=0;whiteSpace=wrap;html=1;" vertex="1" parent="1">
          <mxGeometry x="650" y="430" width="60" height="40" as="geometry" />
        </mxCell>
        <mxCell id="pKEzk_fPkg9QKM04Ghke-54" value="bset" style="rounded=0;whiteSpace=wrap;html=1;fillColor=#CCCCCC;" vertex="1" parent="1">
          <mxGeometry x="470" y="470" width="60" height="40" as="geometry" />
        </mxCell>
        <mxCell id="pKEzk_fPkg9QKM04Ghke-55" value="bkey" style="rounded=0;whiteSpace=wrap;html=1;" vertex="1" parent="1">
          <mxGeometry x="530" y="470" width="60" height="40" as="geometry" />
        </mxCell>
        <mxCell id="pKEzk_fPkg9QKM04Ghke-56" value="bkey" style="rounded=0;whiteSpace=wrap;html=1;" vertex="1" parent="1">
          <mxGeometry x="590" y="470" width="60" height="40" as="geometry" />
        </mxCell>
        <mxCell id="pKEzk_fPkg9QKM04Ghke-57" value="bkey" style="rounded=0;whiteSpace=wrap;html=1;" vertex="1" parent="1">
          <mxGeometry x="650" y="470" width="60" height="40" as="geometry" />
        </mxCell>
        <mxCell id="pKEzk_fPkg9QKM04Ghke-84" value="" style="endArrow=classic;html=1;rounded=0;exitX=0.5;exitY=0;exitDx=0;exitDy=0;entryX=0.5;entryY=0;entryDx=0;entryDy=0;" edge="1" parent="1" source="pKEzk_fPkg9QKM04Ghke-27" target="pKEzk_fPkg9QKM04Ghke-74">
          <mxGeometry width="50" height="50" relative="1" as="geometry">
            <mxPoint x="-100" y="700" as="sourcePoint" />
            <mxPoint x="-50" y="650" as="targetPoint" />
          </mxGeometry>
        </mxCell>
        <mxCell id="pKEzk_fPkg9QKM04Ghke-90" value="" style="endArrow=classic;html=1;rounded=0;exitX=0.5;exitY=0;exitDx=0;exitDy=0;entryX=0.5;entryY=0;entryDx=0;entryDy=0;" edge="1" parent="1" source="pKEzk_fPkg9QKM04Ghke-28" target="pKEzk_fPkg9QKM04Ghke-77">
          <mxGeometry width="50" height="50" relative="1" as="geometry">
            <mxPoint x="-30" y="760" as="sourcePoint" />
            <mxPoint x="20" y="710" as="targetPoint" />
          </mxGeometry>
        </mxCell>
        <mxCell id="pKEzk_fPkg9QKM04Ghke-91" value="" style="endArrow=classic;html=1;rounded=0;exitX=0.5;exitY=0;exitDx=0;exitDy=0;entryX=0.5;entryY=0;entryDx=0;entryDy=0;" edge="1" parent="1" source="pKEzk_fPkg9QKM04Ghke-29" target="pKEzk_fPkg9QKM04Ghke-75">
          <mxGeometry width="50" height="50" relative="1" as="geometry">
            <mxPoint y="720" as="sourcePoint" />
            <mxPoint x="50" y="670" as="targetPoint" />
          </mxGeometry>
        </mxCell>
        <mxCell id="pKEzk_fPkg9QKM04Ghke-92" value="" style="endArrow=classic;html=1;rounded=0;exitX=0.5;exitY=1;exitDx=0;exitDy=0;entryX=0.901;entryY=0.006;entryDx=0;entryDy=0;entryPerimeter=0;" edge="1" parent="1" source="pKEzk_fPkg9QKM04Ghke-27" target="pKEzk_fPkg9QKM04Ghke-64">
          <mxGeometry width="50" height="50" relative="1" as="geometry">
            <mxPoint x="180" y="390" as="sourcePoint" />
            <mxPoint x="230" y="340" as="targetPoint" />
          </mxGeometry>
        </mxCell>
        <mxCell id="pKEzk_fPkg9QKM04Ghke-93" value="" style="endArrow=classic;html=1;rounded=0;exitX=0.5;exitY=1;exitDx=0;exitDy=0;entryX=0.5;entryY=0;entryDx=0;entryDy=0;" edge="1" parent="1" source="pKEzk_fPkg9QKM04Ghke-28" target="pKEzk_fPkg9QKM04Ghke-76">
          <mxGeometry width="50" height="50" relative="1" as="geometry">
            <mxPoint x="50" y="690" as="sourcePoint" />
            <mxPoint x="100" y="640" as="targetPoint" />
          </mxGeometry>
        </mxCell>
        <mxCell id="pKEzk_fPkg9QKM04Ghke-94" value="" style="endArrow=classic;html=1;rounded=0;exitX=0.5;exitY=1;exitDx=0;exitDy=0;entryX=0.5;entryY=0;entryDx=0;entryDy=0;" edge="1" parent="1" source="pKEzk_fPkg9QKM04Ghke-29" target="pKEzk_fPkg9QKM04Ghke-78">
          <mxGeometry width="50" height="50" relative="1" as="geometry">
            <mxPoint x="70" y="550" as="sourcePoint" />
            <mxPoint x="120" y="500" as="targetPoint" />
          </mxGeometry>
        </mxCell>
        <mxCell id="pKEzk_fPkg9QKM04Ghke-95" value="" style="endArrow=classic;html=1;rounded=0;exitX=0.5;exitY=0;exitDx=0;exitDy=0;entryX=0.5;entryY=0;entryDx=0;entryDy=0;" edge="1" parent="1" target="pKEzk_fPkg9QKM04Ghke-102">
          <mxGeometry width="50" height="50" relative="1" as="geometry">
            <mxPoint x="332.5" y="470" as="sourcePoint" />
            <mxPoint x="187.5" y="560" as="targetPoint" />
          </mxGeometry>
        </mxCell>
        <mxCell id="pKEzk_fPkg9QKM04Ghke-96" value="" style="rounded=0;whiteSpace=wrap;html=1;fillColor=#FFFFFF;dashed=1;" vertex="1" parent="1">
          <mxGeometry x="130" y="560" width="110" height="60" as="geometry" />
        </mxCell>
        <mxCell id="pKEzk_fPkg9QKM04Ghke-97" value="" style="endArrow=classic;html=1;rounded=0;exitX=0.5;exitY=1;exitDx=0;exitDy=0;entryX=0.5;entryY=0;entryDx=0;entryDy=0;" edge="1" parent="1">
          <mxGeometry width="50" height="50" relative="1" as="geometry">
            <mxPoint x="255" y="510" as="sourcePoint" />
            <mxPoint x="290" y="560" as="targetPoint" />
          </mxGeometry>
        </mxCell>
        <mxCell id="pKEzk_fPkg9QKM04Ghke-98" value="" style="endArrow=classic;html=1;rounded=0;exitX=0.5;exitY=1;exitDx=0;exitDy=0;entryX=0.5;entryY=0;entryDx=0;entryDy=0;" edge="1" parent="1">
          <mxGeometry width="50" height="50" relative="1" as="geometry">
            <mxPoint x="320" y="510" as="sourcePoint" />
            <mxPoint x="355" y="560" as="targetPoint" />
          </mxGeometry>
        </mxCell>
        <mxCell id="pKEzk_fPkg9QKM04Ghke-99" value="" style="rounded=0;whiteSpace=wrap;html=1;fillColor=#FFFFFF;dashed=1;" vertex="1" parent="1">
          <mxGeometry x="340" y="560" width="30" height="60" as="geometry" />
        </mxCell>
        <mxCell id="pKEzk_fPkg9QKM04Ghke-100" value="" style="endArrow=classic;html=1;rounded=0;exitX=0.5;exitY=1;exitDx=0;exitDy=0;entryX=0.5;entryY=0;entryDx=0;entryDy=0;" edge="1" parent="1">
          <mxGeometry width="50" height="50" relative="1" as="geometry">
            <mxPoint x="385" y="510" as="sourcePoint" />
            <mxPoint x="420" y="560" as="targetPoint" />
          </mxGeometry>
        </mxCell>
        <mxCell id="pKEzk_fPkg9QKM04Ghke-101" value="" style="rounded=0;whiteSpace=wrap;html=1;fillColor=#FFFFFF;dashed=1;" vertex="1" parent="1">
          <mxGeometry x="370" y="560" width="70" height="60" as="geometry" />
        </mxCell>
        <mxCell id="pKEzk_fPkg9QKM04Ghke-102" value="" style="rounded=0;whiteSpace=wrap;html=1;fillColor=#FFFFFF;dashed=1;" vertex="1" parent="1">
          <mxGeometry x="130" y="560" width="50" height="60" as="geometry" />
        </mxCell>
        <mxCell id="pKEzk_fPkg9QKM04Ghke-104" value="" style="endArrow=classic;html=1;rounded=0;exitX=0.5;exitY=0;exitDx=0;exitDy=0;entryX=0.75;entryY=0;entryDx=0;entryDy=0;" edge="1" parent="1">
          <mxGeometry width="50" height="50" relative="1" as="geometry">
            <mxPoint x="390" y="470" as="sourcePoint" />
            <mxPoint x="210" y="560" as="targetPoint" />
          </mxGeometry>
        </mxCell>
        <mxCell id="pKEzk_fPkg9QKM04Ghke-105" value="" style="endArrow=classic;html=1;rounded=0;exitX=0.5;exitY=0;exitDx=0;exitDy=0;entryX=0.25;entryY=0;entryDx=0;entryDy=0;" edge="1" parent="1" source="pKEzk_fPkg9QKM04Ghke-41" target="pKEzk_fPkg9QKM04Ghke-79">
          <mxGeometry width="50" height="50" relative="1" as="geometry">
            <mxPoint x="400" y="480" as="sourcePoint" />
            <mxPoint x="182.5" y="560" as="targetPoint" />
          </mxGeometry>
        </mxCell>
        <mxCell id="pKEzk_fPkg9QKM04Ghke-106" value="Data buckets" style="text;html=1;align=center;verticalAlign=middle;resizable=0;points=[];autosize=1;strokeColor=none;fillColor=none;" vertex="1" parent="1">
          <mxGeometry x="-210" y="650" width="90" height="20" as="geometry" />
        </mxCell>
        <mxCell id="pKEzk_fPkg9QKM04Ghke-107" value="Btree buckets" style="text;html=1;align=center;verticalAlign=middle;resizable=0;points=[];autosize=1;strokeColor=none;fillColor=none;" vertex="1" parent="1">
          <mxGeometry x="610" y="220" width="90" height="20" as="geometry" />
        </mxCell>
        <mxCell id="pKEzk_fPkg9QKM04Ghke-108" value="" style="endArrow=classic;html=1;rounded=0;exitX=0.5;exitY=1;exitDx=0;exitDy=0;entryX=0.5;entryY=0;entryDx=0;entryDy=0;" edge="1" parent="1" target="pKEzk_fPkg9QKM04Ghke-116">
          <mxGeometry width="50" height="50" relative="1" as="geometry">
            <mxPoint x="675" y="510" as="sourcePoint" />
            <mxPoint x="710" y="560" as="targetPoint" />
          </mxGeometry>
        </mxCell>
        <mxCell id="pKEzk_fPkg9QKM04Ghke-110" value="" style="endArrow=classic;html=1;rounded=0;exitX=0.5;exitY=1;exitDx=0;exitDy=0;entryX=0.5;entryY=0;entryDx=0;entryDy=0;" edge="1" parent="1">
          <mxGeometry width="50" height="50" relative="1" as="geometry">
            <mxPoint x="615" y="510" as="sourcePoint" />
            <mxPoint x="650" y="560" as="targetPoint" />
          </mxGeometry>
        </mxCell>
        <mxCell id="pKEzk_fPkg9QKM04Ghke-112" value="" style="endArrow=classic;html=1;rounded=0;exitX=0;exitY=0;exitDx=0;exitDy=0;" edge="1" parent="1" source="pKEzk_fPkg9QKM04Ghke-58" target="pKEzk_fPkg9QKM04Ghke-80">
          <mxGeometry width="50" height="50" relative="1" as="geometry">
            <mxPoint x="625" y="520" as="sourcePoint" />
            <mxPoint x="660" y="570" as="targetPoint" />
          </mxGeometry>
        </mxCell>
        <mxCell id="pKEzk_fPkg9QKM04Ghke-113" value="" style="endArrow=classic;html=1;rounded=0;exitX=0.5;exitY=0;exitDx=0;exitDy=0;entryX=0.874;entryY=0.024;entryDx=0;entryDy=0;entryPerimeter=0;" edge="1" parent="1" source="pKEzk_fPkg9QKM04Ghke-55" target="pKEzk_fPkg9QKM04Ghke-66">
          <mxGeometry width="50" height="50" relative="1" as="geometry">
            <mxPoint x="635" y="530" as="sourcePoint" />
            <mxPoint x="670" y="580" as="targetPoint" />
          </mxGeometry>
        </mxCell>
        <mxCell id="pKEzk_fPkg9QKM04Ghke-114" value="" style="endArrow=classic;html=1;rounded=0;exitX=0.5;exitY=0;exitDx=0;exitDy=0;entryX=0.5;entryY=0;entryDx=0;entryDy=0;" edge="1" parent="1" source="pKEzk_fPkg9QKM04Ghke-56" target="pKEzk_fPkg9QKM04Ghke-81">
          <mxGeometry width="50" height="50" relative="1" as="geometry">
            <mxPoint x="645" y="540" as="sourcePoint" />
            <mxPoint x="680" y="590" as="targetPoint" />
          </mxGeometry>
        </mxCell>
        <mxCell id="pKEzk_fPkg9QKM04Ghke-115" value="" style="rounded=0;whiteSpace=wrap;html=1;fillColor=#FFFFFF;dashed=1;" vertex="1" parent="1">
          <mxGeometry x="600" y="560" width="70" height="60" as="geometry" />
        </mxCell>
        <mxCell id="pKEzk_fPkg9QKM04Ghke-116" value="" style="rounded=0;whiteSpace=wrap;html=1;fillColor=#FFFFFF;dashed=1;" vertex="1" parent="1">
          <mxGeometry x="710" y="560" width="30" height="60" as="geometry" />
        </mxCell>
        <mxCell id="pKEzk_fPkg9QKM04Ghke-118" value="" style="endArrow=classic;html=1;rounded=0;exitX=0.5;exitY=0;exitDx=0;exitDy=0;entryX=0.658;entryY=-0.017;entryDx=0;entryDy=0;entryPerimeter=0;" edge="1" parent="1" target="pKEzk_fPkg9QKM04Ghke-82">
          <mxGeometry width="50" height="50" relative="1" as="geometry">
            <mxPoint x="685" y="470" as="sourcePoint" />
            <mxPoint x="650" y="560" as="targetPoint" />
          </mxGeometry>
        </mxCell>
      </root>
    </mxGraphModel>
  </diagram>
</mxfile>
